<?xml version="1.0" encoding="UTF-8"?>
<svg id="Layer_2" data-name="Layer 2" xmlns="http://www.w3.org/2000/svg" viewBox="0 0 1999 527.53">
  <defs>
    <style>
      .cls-1 {
        fill: #1d3e77;
      }
    </style>
  </defs>
  <g id="Layer_1-2" data-name="Layer 1">
    <g>
      <path class="cls-1" d="M541,0c-10.62,55.82-17.96,112.42-30.74,167.76-5.31,15.45-11.62,31.04-19.36,45.43-.31.57-3.63,3.12-2.91,3.8,1.3,1.23,2.6-1.59,3.22-2.27,9.8-10.8,17.87-26.11,28.27-37.73,19.46-21.75,43.73-39.84,73.98-42.02,89.68-6.47,109.33,66.77,100.41,141.41-9.01,75.45-29.98,152.22-40.19,227.81-1.29,3.78-.68,8.81-3.19,11.81h-110.5l.12-6.38,38.92-220.08c1.92-20.76-2.87-51.28-28.5-53.58-41.82-3.77-61.93,57.28-67.23,89.86l-33.31,190.19h-112L428,0h113Z"/>
      <path class="cls-1" d="M1823,0l-41.48,239.02c-4.08,21.47-12.46,41.88-17.52,62.97,2.59.6,1.74-.76,2.57-1.89,2.97-4.02,5.68-8.4,8.44-12.59,30.94-46.87,60.39-94.75,91.48-141.52h132.5l-133.02,170.52,79.02,199.48h-133l-54.5-182.01c-1.68,0-1.32,30.93-1.46,33.55-2.69,49.3-15.74,97.25-23.09,145.91-.01.81-.85,2.55-1.45,2.55h-111.5L1711,0h112Z"/>
      <path class="cls-1" d="M0,473l27.01-149c4.59,5.18,7.34,12.61,10.82,18.67,27.79,48.46,63.51,92.77,125.72,88.37,24.59-1.74,47.99-21.61,53.18-45.82,10.49-48.97-29.02-58.78-62.4-78.05-56.26-32.49-104.58-68.1-97.32-140.66C67.87,57.92,148.67,2.87,254.49,12.01c36.48,3.15,72.21,14.27,105.58,28.64l-24.56,140.37c-1.22,1.64-1.5.48-2.5-.53-8.2-8.21-16.63-23.03-25.5-32.5-27.46-29.31-94-66.7-122.54-19.51-21.18,35.02-2.34,58.04,27.35,75.7,55.94,33.27,119.23,49.28,125.66,127.34,7.16,86.87-49.29,172.12-135.98,190l-32.01,5.49h-35c-10.48-2.55-21.26-3.44-31.82-5.68-36.52-7.74-72.2-23.78-103.18-44.32v-4Z"/>
      <path class="cls-1" d="M1136,527c-19.57-4.26-36.83-12.05-50.51-26.99-45.95-50.15-39.18-150.14-23.41-211.44,18.07-70.24,66.6-160.26,151.46-153.61,55.26,4.33,69.7,70.34,81.77,113.24.29,1.03.25,3.03,1.68,2.79-2-34.87-4.31-70.34,2.01-105h113l-66,370h-112c2.83-27.43,15.27-51.96,24.01-77.49.73-2.13,2.5-5.36,1.49-7.51-19.7,36.94-42.9,77.87-84.99,92.01l-15.51,3.99h-23ZM1224.76,242.26c-55.73,7.59-80.56,136.02-42.23,168.72,17.59,15.01,43.15,8.44,58.52-6.44,35.97-34.84,57.04-172.27-16.28-162.28Z"/>
      <path class="cls-1" d="M1511,527c-164.26-17.18-132.68-272.69-34.47-353.97,48.53-40.17,120.8-54.2,174.83-16.12l.62,5.57-20.99,118.52-7.8-17.68c-40.22-63.61-92.85-7.28-107.45,42.92-10.32,35.5-13.39,115.16,37.88,119.64,28.31,2.47,45.64-22.28,59.37-42.87l-20.55,119.94c-2.99,7.94-22.56,16.17-30.45,18.55-5.86,1.77-17.29,4.91-23,5.5-6.72.7-21.28.7-28,0Z"/>
      <path class="cls-1" d="M890,516c-.88-.88,1.89-15.53,2.31-18.19,11.17-69.24,25.73-137.99,36.72-207.28,1.84-20.99-2.31-52.21-28.5-54.58-34.94-3.16-54.67,39.88-62.26,67.83-14.49,70.36-25.53,141.5-38.28,212.22h-112l65-370h112c-3.3,23.32-12.94,46.47-24.09,67.19-.31.57-3.63,3.12-2.91,3.8,1.3,1.23,2.6-1.59,3.22-2.27,9.74-10.73,18.01-26.22,28.27-37.73,18.75-21.04,43.06-39.31,72.14-41.86,85.94-7.53,110.5,59.47,103.36,133.36-7.67,79.34-32.59,162.08-42.3,241.7-.18,1.11-.99,5.81-2.19,5.81h-110.5Z"/>
    </g>
  </g>
</svg>